# xmcd
#
# Track frame offsets: 
#        150
#        21682
#        25519
#        31530
#        35294
#        39453
#        68745
#        96455
#        107548
#        121993
#        132266
#        157781
#        189700
#        216281
#
# Disc length: 3483 seconds
#
# Revision: 0
# Processed by: cddbd v1.5.2PL0 Copyright (c) Steve Scherf et al.
# Submitted via: ExactAudioCopyFreeDBPlugin 1.0
#
DISCID=b30d990e
DTITLE=Various Artist - Cung thuong hoa dieu
DYEAR=1900
DGENRE=
TTITLE0=Phong ba dinh
TTITLE1=Luong long tranh chau
TTITLE2=Kieu nuong
TTITLE3=Long ho hoi
TTITLE4=Gisng to dieu nu
TTITLE5=Luu thuy truong
TTITLE6=Phu luc
TTITLE7=Duyen ky ngo
TTITLE8=Phi van diep khuc
TTITLE9=Ly con sao
TTITLE10=Nam xuan
TTITLE11=nam ai
TTITLE12=Phung cau
TTITLE13=Vong co day dao
EXTD=
EXTT0=
EXTT1=
EXTT2=
EXTT3=
EXTT4=
EXTT5=
EXTT6=
EXTT7=
EXTT8=
EXTT9=
EXTT10=
EXTT11=
EXTT12=
EXTT13=
PLAYORDER=
